<svg width="20" height="20" viewBox="0 0 20 20" fill="none" xmlns="http://www.w3.org/2000/svg">
<path fill-rule="evenodd" clip-rule="evenodd" d="M7.70837 3.33268C7.70837 2.06703 8.73439 1.04102 10 1.04102C11.2657 1.04102 12.2917 2.06703 12.2917 3.33268C12.2917 4.59834 11.2657 5.62435 10 5.62435C8.73439 5.62435 7.70837 4.59834 7.70837 3.33268Z" fill="#363062"/>
<path d="M6.85253 9.6459L5.03979 9.04165C4.51834 8.86783 4.16663 8.37985 4.16663 7.8302C4.16663 7.01722 4.91624 6.41123 5.71117 6.58157L7.29248 6.92042C7.38041 6.93926 7.42437 6.94868 7.46796 6.9577C9.13828 7.3032 10.8616 7.3032 12.532 6.9577C12.5755 6.94868 12.6195 6.93926 12.7074 6.92042L14.2887 6.58157C15.0837 6.41122 15.8333 7.01722 15.8333 7.8302C15.8333 8.37985 15.4816 8.86783 14.9601 9.04165L13.1474 9.6459C12.9283 9.71892 12.8188 9.75543 12.7364 9.80627C12.4559 9.97943 12.3038 10.3017 12.3485 10.6283C12.3616 10.7242 12.403 10.832 12.4859 11.0475L13.5249 13.7489C13.8342 14.553 13.2406 15.4173 12.3791 15.4173C11.9385 15.4173 11.5317 15.1812 11.3131 14.7987L9.99996 12.5006L8.68677 14.7987C8.46819 15.1812 8.0614 15.4173 7.62084 15.4173C6.75927 15.4173 6.1657 14.553 6.47499 13.7489L7.51398 11.0475C7.59687 10.832 7.63832 10.7242 7.65143 10.6283C7.69609 10.3017 7.54402 9.97943 7.2635 9.80627C7.18113 9.75543 7.0716 9.71892 6.85253 9.6459Z" fill="#363062"/>
<path d="M9.99996 18.3335C14.6023 18.3335 18.3333 16.6546 18.3333 14.5835C18.3333 13.1486 16.5424 11.902 13.9116 11.2715L14.6916 13.2995C15.3158 14.9224 14.1179 16.6666 12.3791 16.6666C11.4899 16.6666 10.669 16.1902 10.2278 15.4182L9.99996 15.0194L9.77207 15.4182C9.33094 16.1902 8.50997 16.6666 7.62084 16.6666C5.88205 16.6666 4.68412 14.9224 5.3083 13.2995L6.08832 11.2715C3.45751 11.902 1.66663 13.1486 1.66663 14.5835C1.66663 16.6546 5.39759 18.3335 9.99996 18.3335Z" fill="#363062"/>
</svg>
