<svg width="27" height="26" viewBox="0 0 27 26" fill="none" xmlns="http://www.w3.org/2000/svg">
<path d="M1.375 12.6923C1.375 8.05078 1.375 5.73003 2.78088 4.28809C4.18678 2.84615 6.44951 2.84615 10.975 2.84615H15.775C20.3004 2.84615 22.5633 2.84615 23.9691 4.28809C25.375 5.73003 25.375 8.05078 25.375 12.6923V15.1538C25.375 19.7953 25.375 22.1162 23.9691 23.558C22.5633 25 20.3004 25 15.775 25H10.975C6.44951 25 4.18678 25 2.78088 23.558C1.375 22.1162 1.375 19.7953 1.375 15.1538V12.6923Z" stroke="#1C274C" stroke-width="2"/>
<path d="M7.375 2.84615V1" stroke="#1C274C" stroke-width="2" stroke-linecap="round"/>
<path d="M19.375 2.84615V1" stroke="#1C274C" stroke-width="2" stroke-linecap="round"/>
<path d="M1.97461 9H24.7746" stroke="#1C274C" stroke-width="2" stroke-linecap="round"/>
<path d="M20.5748 18.8462C20.5748 19.5259 20.0376 20.0769 19.3748 20.0769C18.712 20.0769 18.1748 19.5259 18.1748 18.8462C18.1748 18.1664 18.712 17.6154 19.3748 17.6154C20.0376 17.6154 20.5748 18.1664 20.5748 18.8462Z" fill="#1C274C"/>
<path d="M20.5748 13.9231C20.5748 14.6028 20.0376 15.1538 19.3748 15.1538C18.712 15.1538 18.1748 14.6028 18.1748 13.9231C18.1748 13.2433 18.712 12.6923 19.3748 12.6923C20.0376 12.6923 20.5748 13.2433 20.5748 13.9231Z" fill="#1C274C"/>
<path d="M14.5748 18.8462C14.5748 19.5259 14.0376 20.0769 13.3748 20.0769C12.712 20.0769 12.1748 19.5259 12.1748 18.8462C12.1748 18.1664 12.712 17.6154 13.3748 17.6154C14.0376 17.6154 14.5748 18.1664 14.5748 18.8462Z" fill="#1C274C"/>
<path d="M14.5748 13.9231C14.5748 14.6028 14.0376 15.1538 13.3748 15.1538C12.712 15.1538 12.1748 14.6028 12.1748 13.9231C12.1748 13.2433 12.712 12.6923 13.3748 12.6923C14.0376 12.6923 14.5748 13.2433 14.5748 13.9231Z" fill="#1C274C"/>
<path d="M8.5748 18.8462C8.5748 19.5259 8.03754 20.0769 7.3748 20.0769C6.71207 20.0769 6.1748 19.5259 6.1748 18.8462C6.1748 18.1664 6.71207 17.6154 7.3748 17.6154C8.03754 17.6154 8.5748 18.1664 8.5748 18.8462Z" fill="#1C274C"/>
<path d="M8.5748 13.9231C8.5748 14.6028 8.03754 15.1538 7.3748 15.1538C6.71207 15.1538 6.1748 14.6028 6.1748 13.9231C6.1748 13.2433 6.71207 12.6923 7.3748 12.6923C8.03754 12.6923 8.5748 13.2433 8.5748 13.9231Z" fill="#1C274C"/>
</svg>
