<svg width="32" height="32" viewBox="0 0 32 32" fill="none" xmlns="http://www.w3.org/2000/svg">
<path d="M15.9998 29.3333C23.3636 29.3333 29.3332 23.3638 29.3332 16C29.3332 14.7168 29.1519 13.4761 28.8136 12.3018C28.7232 11.988 28.354 11.8622 28.0632 12.011C27.2443 12.4302 26.3163 12.6666 25.3332 12.6666C22.0195 12.6666 19.3332 9.98033 19.3332 6.66663C19.3332 5.68345 19.5696 4.75551 19.9888 3.93658C20.1376 3.64584 20.0118 3.27657 19.698 3.18616C18.5237 2.84787 17.283 2.66663 15.9998 2.66663C8.63604 2.66663 2.6665 8.63616 2.6665 16C2.6665 18.1329 3.16733 20.1488 4.05779 21.9366C4.29442 22.4117 4.37318 22.9547 4.236 23.4674L3.44185 26.4355C3.09711 27.7239 4.27586 28.9027 5.5643 28.5579L8.53235 27.7638C9.04508 27.6266 9.58811 27.7054 10.0632 27.942C11.851 28.8325 13.8669 29.3333 15.9998 29.3333Z" fill="#2979F2"/>
<circle cx="25.3335" cy="6.66663" r="4" fill="#2979F2" stroke="white"/>
</svg>
