<svg width="149" height="148" viewBox="0 0 149 148" fill="none" xmlns="http://www.w3.org/2000/svg">
<path d="M131.868 57.9876C141.953 63.1978 148.5 73.6973 148.5 85.1728C148.5 102.074 134.706 115.817 117.75 115.817H103.229C101.327 115.817 99.7788 114.281 99.7788 112.379C99.7788 110.485 101.327 108.942 103.229 108.942H117.75C130.903 108.942 141.6 98.2845 141.6 85.1798C141.6 75.3048 135.347 66.3626 126.041 62.9179C125.112 62.5734 124.37 61.8415 124.024 60.9156C123.847 60.4597 123.77 59.971 123.8 59.4829C123.83 58.9948 123.965 58.519 124.197 58.088C126.855 53.0859 128.26 47.445 128.26 41.7682C128.26 22.5276 112.55 6.87539 93.2386 6.87539C79.2432 6.87539 66.6091 15.15 61.0628 27.9675C60.321 29.69 58.3185 30.5009 56.5753 29.7761C53.7086 28.5919 50.6833 27.989 47.5644 27.989C34.6206 27.989 24.0898 38.4813 24.0898 51.3849C24.0898 53.8107 24.4715 56.2291 25.2278 58.5688C25.7968 60.3271 24.8677 62.2218 23.1246 62.8533C13.7175 66.255 7.40049 75.2259 7.40049 85.1728C7.40049 98.2845 18.0969 108.942 31.2497 108.942H47.1827C49.0843 108.942 50.6329 110.485 50.6329 112.379C50.6329 114.281 49.0843 115.817 47.1827 115.817H31.2497C14.2937 115.817 0.5 102.074 0.5 85.1798C0.5 73.403 7.35012 62.7026 17.8449 57.6286C17.4056 55.5761 17.1895 53.4806 17.1895 51.3849C17.1895 34.6921 30.8176 21.1138 47.5645 21.1138C50.4889 21.1138 53.3558 21.5228 56.1217 22.3409C63.3319 8.66949 77.565 0 93.2388 0C116.353 0 135.16 18.7382 135.16 41.7681C135.16 47.3371 134.029 52.8775 131.868 57.9873L131.868 57.9876ZM87.8134 127.841C89.1603 126.499 91.3428 126.499 92.6898 127.841C94.0369 129.183 94.0367 131.357 92.6898 132.699L78.3486 146.988C78.0303 147.309 77.6511 147.564 77.2332 147.737C76.8152 147.911 76.3668 148 75.914 148C75.0279 148 74.1492 147.663 73.4722 146.988C73.4577 146.974 73.4434 146.952 73.4289 146.938C73.3064 146.837 73.1767 146.751 73.0615 146.637L58.7203 132.348C57.3734 131.006 57.3734 128.831 58.7203 127.489C60.0672 126.147 62.257 126.147 63.5968 127.489L72.2548 136.116V93.9958C72.2548 92.1011 73.8035 90.5581 75.7051 90.5581C77.6067 90.5581 79.1553 92.1011 79.1553 93.9958V136.467L87.8134 127.841Z" fill="#00C5FB"/>
</svg>
