<svg width="12" height="14" viewBox="0 0 12 14" fill="none" xmlns="http://www.w3.org/2000/svg">
<path fill-rule="evenodd" clip-rule="evenodd" d="M5.99984 0.333313C3.05432 0.333313 0.666504 3.0017 0.666504 5.99998C0.666504 8.97476 2.36872 12.2083 5.02455 13.4496C5.64367 13.739 6.35601 13.739 6.97513 13.4496C9.63095 12.2083 11.3332 8.97476 11.3332 5.99998C11.3332 3.0017 8.94536 0.333313 5.99984 0.333313ZM5.99984 6.99998C6.73622 6.99998 7.33317 6.40303 7.33317 5.66665C7.33317 4.93027 6.73622 4.33331 5.99984 4.33331C5.26346 4.33331 4.6665 4.93027 4.6665 5.66665C4.6665 6.40303 5.26346 6.99998 5.99984 6.99998Z" fill="#8683A1"/>
</svg>
