<svg width="14" height="18" viewBox="0 0 14 18" fill="none" xmlns="http://www.w3.org/2000/svg">
<path fill-rule="evenodd" clip-rule="evenodd" d="M7.00016 0.575684C3.31826 0.575684 0.333496 3.91117 0.333496 7.65902C0.333496 11.3775 2.46127 15.4194 5.78105 16.9711C6.55495 17.3328 7.44538 17.3328 8.21927 16.9711C11.5391 15.4194 13.6668 11.3775 13.6668 7.65902C13.6668 3.91117 10.6821 0.575684 7.00016 0.575684ZM7.00016 8.90902C7.92064 8.90902 8.66683 8.16283 8.66683 7.24235C8.66683 6.32188 7.92064 5.57568 7.00016 5.57568C6.07969 5.57568 5.3335 6.32188 5.3335 7.24235C5.3335 8.16283 6.07969 8.90902 7.00016 8.90902Z" fill="white"/>
</svg>
