<svg width="19" height="24" viewBox="0 0 19 24" fill="none" xmlns="http://www.w3.org/2000/svg">
<g clip-path="url(#clip0_3188_23034)">
<path d="M5.65527 17.7793C6.36605 18.6639 7.01294 19.5956 7.59128 20.5679C8.08507 21.4822 8.29092 22.1023 8.65179 23.204C8.87311 23.8127 9.07313 23.9943 9.50317 23.9943C9.97179 23.9943 10.1844 23.6853 10.3487 23.2073C10.6898 22.1669 10.9574 21.3728 11.3797 20.6226C12.2083 19.1741 13.238 17.8869 14.2497 16.6498C14.5236 16.2997 16.2944 14.2599 17.0916 12.6505C17.0916 12.6505 18.0714 10.8826 18.0714 8.41343C18.0714 6.10381 17.1051 4.50195 17.1051 4.50195L14.3231 5.22954L12.6336 9.57511L12.2156 10.1743L12.132 10.2829L12.0208 10.4188L11.8257 10.6358L11.5469 10.9081L10.0424 12.105L6.28099 14.2259L5.65527 17.7793Z" fill="#34A853"/>
<path d="M1.77319 12.3525C2.69121 14.4002 4.46147 16.2002 5.6592 17.7799L12.0209 10.4208C12.0209 10.4208 11.1246 11.5654 9.49886 11.5654C7.68795 11.5654 6.22498 10.1532 6.22498 8.37251C6.22498 7.15139 6.97726 6.3125 6.97726 6.3125L2.6588 7.44253L1.77319 12.3525Z" fill="#FBBC04"/>
<path d="M12.0919 0.378972C14.2047 1.04424 16.0132 2.44088 17.107 4.50037L12.0228 10.4172C12.0228 10.4172 12.775 9.56312 12.775 8.34959C12.775 6.52742 11.2039 5.16615 9.50651 5.16615C7.90144 5.16615 6.97961 6.30893 6.97961 6.30893V2.58141L12.0919 0.378906V0.378972Z" fill="#4285F4"/>
<path d="M2.93848 2.99281C4.20042 1.51834 6.42095 0 9.48229 0C10.9676 0 12.0865 0.380796 12.0865 0.380796L6.97475 6.31167H3.35299L2.93848 2.99281Z" fill="#1A73E8"/>
<path d="M1.77314 12.352C1.77314 12.352 0.928589 10.7369 0.928589 8.39703C0.928589 6.18556 1.8089 4.25248 2.93852 2.99219L6.97767 6.31158L1.77314 12.352Z" fill="#EA4335"/>
</g>
<defs>
<clipPath id="clip0_3188_23034">
<rect width="17.1429" height="24" fill="white" transform="translate(0.928589)"/>
</clipPath>
</defs>
</svg>
