<svg width="18" height="17" viewBox="0 0 18 17" fill="none" xmlns="http://www.w3.org/2000/svg">
    <path
        d="M14.6709 8.81131V7.4375H13.6084V9.03125C13.6084 9.17213 13.6644 9.30724 13.7641 9.40684L15.2021 10.8449V11.6875H3.51465V10.8449L4.95274 9.40684C5.05238 9.30724 5.10837 9.17213 5.1084 9.03125V6.90625C5.10692 6.15973 5.30246 5.42605 5.67529 4.77929C6.04811 4.13254 6.58501 3.59562 7.23175 3.22278C7.87849 2.84993 8.61217 2.65436 9.35869 2.65581C10.1052 2.65727 10.8381 2.8557 11.4834 3.23106V2.04372C10.9777 1.81981 10.4398 1.67709 9.88965 1.62084V0.53125H8.82715V1.62031C7.51739 1.75362 6.30358 2.36784 5.42044 3.34421C4.53729 4.32058 4.04755 5.58973 4.0459 6.90625V8.81131L2.6078 10.2494C2.50817 10.349 2.45218 10.4841 2.45215 10.625V12.2188C2.45215 12.3596 2.50812 12.4948 2.60775 12.5944C2.70738 12.694 2.8425 12.75 2.9834 12.75H6.70215V13.2812C6.70215 13.9857 6.982 14.6614 7.48015 15.1595C7.97829 15.6576 8.65392 15.9375 9.3584 15.9375C10.0629 15.9375 10.7385 15.6576 11.2367 15.1595C11.7348 14.6614 12.0146 13.9857 12.0146 13.2812V12.75H15.7334C15.8743 12.75 16.0094 12.694 16.109 12.5944C16.2087 12.4948 16.2646 12.3596 16.2646 12.2188V10.625C16.2646 10.4841 16.2086 10.349 16.109 10.2494L14.6709 8.81131ZM10.9521 13.2812C10.9521 13.7039 10.7842 14.1093 10.4853 14.4082C10.1865 14.7071 9.78109 14.875 9.3584 14.875C8.93571 14.875 8.53033 14.7071 8.23145 14.4082C7.93256 14.1093 7.76465 13.7039 7.76465 13.2812V12.75H10.9521V13.2812Z"
        fill="#2F6EB6" />
    <path
        d="M14.6709 6.375C15.8445 6.375 16.7959 5.42361 16.7959 4.25C16.7959 3.07639 15.8445 2.125 14.6709 2.125C13.4973 2.125 12.5459 3.07639 12.5459 4.25C12.5459 5.42361 13.4973 6.375 14.6709 6.375Z"
        fill="#FF0000" />
</svg>
