<svg width="16" height="16" viewBox="0 0 16 16" fill="none" xmlns="http://www.w3.org/2000/svg">
<path d="M11.079 10.0323L10.6771 10.4319C10.6771 10.4319 9.72188 11.3817 7.11452 8.78908C4.50718 6.19655 5.4624 5.24675 5.4624 5.24675L5.71546 4.99511C6.33893 4.37522 6.39769 3.37999 5.85372 2.65343L4.74112 1.16719C4.0679 0.267929 2.76703 0.149138 1.9954 0.916381L0.610456 2.29346C0.227849 2.6739 -0.0285458 3.16706 0.00254842 3.71414C0.0820928 5.11374 0.715332 8.12511 4.24886 11.6386C7.99599 15.3644 11.5119 15.5125 12.9497 15.3784C13.4045 15.3361 13.8 15.1045 14.1187 14.7875L15.3721 13.5413C16.2182 12.6999 15.9796 11.2576 14.8971 10.6692L13.2113 9.75279C12.5005 9.36641 11.6346 9.47988 11.079 10.0323Z" fill="white"/>
</svg>
