<svg width="24" height="24" viewBox="0 0 24 24" fill="none" xmlns="http://www.w3.org/2000/svg">
<path d="M23.6259 21.591L18.3636 16.1503C19.6305 14.4065 20.3144 12.284 20.3121 10.103C20.3121 4.53226 15.9285 0 10.5403 0C5.15222 0 0.768555 4.53226 0.768555 10.103C0.768555 15.6738 5.15222 20.2061 10.5403 20.2061C12.6498 20.2085 14.7027 19.5014 16.3893 18.1915L21.6516 23.6322C21.918 23.8783 22.2654 24.0098 22.6226 23.9994C22.9797 23.9891 23.3195 23.8378 23.5721 23.5766C23.8248 23.3154 23.9711 22.9641 23.9811 22.5948C23.9911 22.2256 23.864 21.8664 23.6259 21.591ZM3.5605 10.103C3.5605 8.67576 3.96986 7.28053 4.73681 6.09379C5.50377 4.90705 6.59387 3.9821 7.86927 3.4359C9.14467 2.88971 10.5481 2.7468 11.902 3.02524C13.256 3.30369 14.4997 3.99099 15.4758 5.00023C16.452 6.00947 17.1168 7.29532 17.3861 8.69518C17.6554 10.095 17.5172 11.546 16.9889 12.8647C16.4606 14.1833 15.566 15.3103 14.4181 16.1033C13.2703 16.8963 11.9208 17.3195 10.5403 17.3195C8.68986 17.3172 6.91579 16.5562 5.6073 15.2033C4.2988 13.8505 3.56272 12.0163 3.5605 10.103Z" fill="#363062"/>
</svg>
