<svg width="50" height="62" viewBox="0 0 50 62" fill="none" xmlns="http://www.w3.org/2000/svg">
<rect x="0.6" y="1.30117" width="48.8" height="59.4109" rx="24.4" fill="#F5F4F8" stroke="#F5F4F8" stroke-width="1.2"/>
<path d="M31.6673 28.9862C31.6673 33.4492 25.0007 41.1084 25.0007 41.1084C25.0007 41.1084 18.334 33.4492 18.334 28.9862C18.334 26.8429 19.0364 24.7874 20.2866 23.2718C21.5368 21.7562 23.2325 20.9048 25.0007 20.9048C26.7688 20.9048 28.4645 21.7562 29.7147 23.2718C30.9649 24.7874 31.6673 26.8429 31.6673 28.9862V28.9862Z" stroke="#53587A" stroke-width="1.25"/>
<path d="M25 29.7941C25.2652 29.7941 25.5196 29.6663 25.7071 29.439C25.8946 29.2117 26 28.9033 26 28.5818C26 28.2603 25.8946 27.952 25.7071 27.7247C25.5196 27.4973 25.2652 27.3696 25 27.3696C24.7348 27.3696 24.4804 27.4973 24.2929 27.7247C24.1054 27.952 24 28.2603 24 28.5818C24 28.9033 24.1054 29.2117 24.2929 29.439C24.4804 29.6663 24.7348 29.7941 25 29.7941Z" fill="#53587A" stroke="#53587A" stroke-width="1.25" stroke-linecap="round" stroke-linejoin="round"/>
</svg>
