<svg width="14" height="14" viewBox="0 0 14 14" fill="none" xmlns="http://www.w3.org/2000/svg">
<path d="M5.10227 2.60556C5.94671 1.09073 6.36892 0.333313 7.00016 0.333313C7.6314 0.333313 8.05362 1.09073 8.89805 2.60556L9.11652 2.99747C9.35648 3.42794 9.47646 3.64317 9.66353 3.78518C9.85061 3.9272 10.0836 3.97991 10.5496 4.08535L10.9738 4.18133C12.6136 4.55235 13.4335 4.73786 13.6285 5.36513C13.8236 5.99241 13.2647 6.64603 12.1468 7.95326L11.8576 8.29146C11.5399 8.66294 11.381 8.84867 11.3096 9.07846C11.2381 9.30824 11.2621 9.55605 11.3102 10.0517L11.3539 10.5029C11.5229 12.247 11.6074 13.1191 11.0967 13.5068C10.586 13.8945 9.81838 13.541 8.28305 12.8341L7.88584 12.6512C7.44955 12.4503 7.2314 12.3499 7.00016 12.3499C6.76893 12.3499 6.55078 12.4503 6.11449 12.6512L5.71728 12.8341C4.18195 13.541 3.41428 13.8945 2.90359 13.5068C2.39291 13.1191 2.47742 12.247 2.64643 10.5029L2.69015 10.0517C2.73818 9.55605 2.76219 9.30824 2.69074 9.07846C2.61928 8.84867 2.46045 8.66294 2.14278 8.29146L1.85356 7.95326C0.735662 6.64603 0.176712 5.99241 0.371777 5.36513C0.566841 4.73786 1.38673 4.55235 3.02652 4.18133L3.45075 4.08535C3.91673 3.97991 4.14972 3.9272 4.33679 3.78518C4.52387 3.64317 4.64385 3.42794 4.88381 2.99747L5.10227 2.60556Z" fill="#8683A1"/>
</svg>
