<svg width="149" height="148" viewBox="0 0 149 148" fill="none" xmlns="http://www.w3.org/2000/svg">
<path fill-rule="evenodd" clip-rule="evenodd" d="M59.6528 19.7357C58.1511 21.0154 57.4002 21.6554 56.5982 22.1929C54.7599 23.425 52.6954 24.2801 50.5243 24.7088C49.5772 24.8958 48.5937 24.9742 46.6268 25.1312C41.685 25.5256 39.214 25.7227 37.1525 26.4509C32.3845 28.135 28.634 31.8855 26.9499 36.6535C26.2218 38.715 26.0246 41.1859 25.6302 46.1278C25.4733 48.0947 25.3948 49.0781 25.2078 50.0253C24.7792 52.1964 23.924 54.2609 22.6919 56.0992C22.1544 56.9011 21.5145 57.652 20.2347 59.1538C17.0192 62.927 15.4113 64.8138 14.4685 66.7863C12.2878 71.3487 12.2878 76.6526 14.4685 81.215C15.4113 83.1876 17.0191 85.0742 20.2347 88.8475C21.5143 90.3491 22.1544 91.1002 22.6919 91.9021C23.924 93.7404 24.7792 95.8049 25.2078 97.976C25.3948 98.9232 25.4733 99.9066 25.6302 101.873C26.0246 106.815 26.2218 109.286 26.9499 111.348C28.634 116.116 32.3845 119.866 37.1525 121.55C39.214 122.279 41.685 122.476 46.6268 122.87C48.5937 123.027 49.5772 123.106 50.5243 123.293C52.6954 123.721 54.7599 124.576 56.5982 125.808C57.4002 126.346 58.1511 126.986 59.6528 128.266C63.4261 131.481 65.3128 133.089 67.2853 134.032C71.8477 136.212 77.1516 136.212 81.714 134.032C83.6866 133.089 85.5732 131.481 89.3465 128.266C90.8483 126.986 91.5992 126.346 92.4011 125.808C94.2394 124.576 96.3039 123.721 98.4751 123.293C99.4222 123.106 100.406 123.027 102.373 122.87C107.314 122.476 109.785 122.279 111.847 121.55C116.615 119.866 120.365 116.116 122.049 111.348C122.778 109.286 122.975 106.815 123.369 101.873C123.526 99.9066 123.605 98.9232 123.792 97.976C124.22 95.8049 125.075 93.7404 126.307 91.9021C126.845 91.1002 127.485 90.3493 128.765 88.8475C131.98 85.0742 133.588 83.1876 134.531 81.215C136.712 76.6526 136.712 71.3487 134.531 66.7863C133.588 64.8137 131.98 62.9271 128.765 59.1538C127.485 57.652 126.845 56.9011 126.307 56.0992C125.075 54.2609 124.22 52.1964 123.792 50.0253C123.605 49.0781 123.526 48.0947 123.369 46.1278C122.975 41.1859 122.778 38.715 122.049 36.6535C120.365 31.8855 116.615 28.135 111.847 26.4509C109.785 25.7227 107.314 25.5256 102.373 25.1312C100.406 24.9742 99.4222 24.8958 98.4751 24.7088C96.3039 24.2801 94.2394 23.425 92.4011 22.1929C91.5992 21.6554 90.8483 21.0155 89.3465 19.7357C85.5732 16.5201 83.6866 14.9123 81.714 13.9695C77.1516 11.7888 71.8477 11.7888 67.2853 13.9695C65.3128 14.9123 63.4261 16.5201 59.6528 19.7357ZM101.469 60.8233C103.429 58.8634 103.429 55.6856 101.469 53.7257C99.5095 51.7657 96.3318 51.7657 94.3718 53.7257L64.462 83.6355L54.6273 73.8009C52.6674 71.8409 49.4896 71.8409 47.5297 73.8009C45.5697 75.7608 45.5697 78.9386 47.5297 80.8985L60.9132 94.282C62.8731 96.242 66.0508 96.242 68.0108 94.282L101.469 60.8233Z" fill="#00C5FB"/>
</svg>
