<svg width="79" height="68" viewBox="0 0 79 68" fill="none" xmlns="http://www.w3.org/2000/svg">
<path d="M57.5 63.5901C58.235 63.5901 58.9963 63.4065 59.6788 63.039C61.175 62.2515 62.0938 60.6764 62.0938 58.9964V55.2691C70.0212 54.4553 75.2188 48.6276 75.2188 40.2801V24.5303C75.2188 15.5003 69.155 9.43652 60.125 9.43652H33.875C24.845 9.43652 18.7812 15.5003 18.7812 24.5303V40.2801C18.7812 49.3101 24.845 55.3739 33.875 55.3739H43.7713L54.9538 62.8291C55.7151 63.3278 56.6075 63.5901 57.5 63.5901ZM60.125 13.3477C66.8975 13.3477 71.2812 17.7315 71.2812 24.504V40.2542C71.2812 47.0267 66.8975 51.4104 60.125 51.4104C59.0487 51.4104 58.1562 52.3029 58.1562 53.3792V58.9704C58.1562 59.3117 57.9462 59.4691 57.815 59.5478C57.6837 59.6266 57.4212 59.7053 57.1325 59.5216L45.4512 51.7517C45.1362 51.5417 44.7425 51.4104 44.3487 51.4104H33.8487C27.0762 51.4104 22.6925 47.0267 22.6925 40.2542V24.504C22.6925 17.7315 27.0762 13.3477 33.8487 13.3477H60.125Z" fill="#363062"/>
<path d="M47.0005 36.7891C48.0767 36.7891 48.9692 35.8966 48.9692 34.8203V34.2692C48.9692 31.2242 46.738 29.7279 45.898 29.1504C44.9268 28.4941 44.6118 28.0479 44.6118 27.3654C44.6118 26.0529 45.688 24.9766 47.0005 24.9766C48.313 24.9766 49.3892 26.0529 49.3892 27.3654C49.3892 28.4417 50.2817 29.3342 51.3579 29.3342C52.4342 29.3342 53.3267 28.4417 53.3267 27.3654C53.3267 23.8742 50.4917 21.0391 47.0005 21.0391C43.5092 21.0391 40.6743 23.8742 40.6743 27.3654C40.6743 30.3579 42.8792 31.8541 43.693 32.4054C44.7167 33.0879 45.0317 33.5342 45.0317 34.2692V34.8203C45.0317 35.9228 45.9242 36.7891 47.0005 36.7891Z" fill="#363062"/>
<path d="M47 43.3252C48.1025 43.3252 48.9688 42.4327 48.9688 41.3564C48.9688 40.2802 48.0763 39.3877 47 39.3877C45.9237 39.3877 45.0312 40.2802 45.0312 41.3564C45.0312 42.4327 45.8975 43.3252 47 43.3252Z" fill="#363062"/>
<path d="M48.6667 6.88477H20.3333C11.8333 6.88477 6.16666 12.5514 6.16666 21.0514V38.0514C6.16666 46.5514 11.8333 52.2181 20.3333 52.2181V58.2531C20.3333 60.5198 22.855 61.8798 24.725 60.6048L37.3333 52.2181H48.6667C57.1667 52.2181 62.8333 46.5514 62.8333 38.0514V21.0514C62.8333 12.5514 57.1667 6.88477 48.6667 6.88477ZM34.5 41.3664C33.31 41.3664 32.375 40.4031 32.375 39.2414C32.375 38.0798 33.31 37.1164 34.5 37.1164C35.69 37.1164 36.625 38.0798 36.625 39.2414C36.625 40.4031 35.69 41.3664 34.5 41.3664ZM38.07 29.6081C36.965 30.3448 36.625 30.8264 36.625 31.6198V32.2148C36.625 33.3764 35.6617 34.3398 34.5 34.3398C33.3383 34.3398 32.375 33.3764 32.375 32.2148V31.6198C32.375 28.3331 34.7833 26.7181 35.69 26.0948C36.7383 25.3864 37.0783 24.9048 37.0783 24.1681C37.0783 22.7514 35.9167 21.5898 34.5 21.5898C33.0833 21.5898 31.9217 22.7514 31.9217 24.1681C31.9217 25.3298 30.9583 26.2931 29.7967 26.2931C28.635 26.2931 27.6717 25.3298 27.6717 24.1681C27.6717 20.3998 30.7317 17.3398 34.5 17.3398C38.2683 17.3398 41.3283 20.3998 41.3283 24.1681C41.3283 27.3981 38.9483 29.0131 38.07 29.6081Z" fill="#363062"/>
</svg>
