<svg width="31" height="30" viewBox="0 0 31 30" fill="none" xmlns="http://www.w3.org/2000/svg">
<path d="M15.6032 28.1254L6.66882 22.7441V5.25977C6.64086 4.54417 6.89735 3.84662 7.38221 3.31959C7.86708 2.79256 8.54088 2.47893 9.25632 2.44727H21.9594C22.6757 2.47895 23.3504 2.79227 23.8368 3.31901C24.3231 3.84575 24.5817 4.54328 24.5563 5.25977V22.8285L15.6032 28.1254ZM8.54382 21.6566L15.6126 25.941L22.6813 21.7316V5.25977C22.7032 5.04092 22.6407 4.82198 22.5065 4.64772C22.3723 4.47345 22.1766 4.35703 21.9594 4.32227H9.25632C8.87194 4.32227 8.54382 4.75352 8.54382 5.25977V21.6566Z" fill="#17061C"/>
<path d="M15.0501 19.4242C14.8472 19.4242 14.6498 19.3584 14.4876 19.2367L11.6751 17.1367C11.4761 16.9875 11.3446 16.7654 11.3095 16.5193C11.2743 16.2732 11.3384 16.0231 11.4876 15.8242C11.5614 15.7257 11.654 15.6427 11.7599 15.58C11.8658 15.5173 11.9831 15.4761 12.105 15.4586C12.2268 15.4412 12.351 15.448 12.4702 15.4785C12.5895 15.5091 12.7016 15.5629 12.8001 15.6367L15.6126 17.7367C15.77 17.8548 15.8862 18.0194 15.9449 18.2072C16.0036 18.395 16.0017 18.5965 15.9394 18.7832C15.8772 18.9699 15.7578 19.1322 15.5982 19.2473C15.4386 19.3623 15.2468 19.4242 15.0501 19.4242Z" fill="#17061C"/>
<path d="M15.0503 19.4245C14.8431 19.4239 14.642 19.3546 14.4784 19.2276C14.2838 19.0743 14.1578 18.8502 14.1279 18.6043C14.0981 18.3583 14.1668 18.1106 14.319 17.9151L18.2378 12.8995C18.3141 12.8029 18.4087 12.7222 18.5162 12.6621C18.6237 12.602 18.742 12.5637 18.8643 12.5494C18.9866 12.535 19.1106 12.5449 19.2291 12.5784C19.3476 12.6119 19.4583 12.6685 19.5549 12.7448C19.6516 12.8212 19.7323 12.9158 19.7923 13.0233C19.8524 13.1308 19.8907 13.2491 19.9051 13.3714C19.9195 13.4937 19.9096 13.6176 19.876 13.7361C19.8425 13.8546 19.786 13.9654 19.7096 14.062L15.7909 19.0683C15.7026 19.18 15.59 19.2701 15.4617 19.3319C15.3334 19.3936 15.1927 19.4253 15.0503 19.4245Z" fill="#17061C"/>
<path d="M9.4812 3.38477H21.7437C22.241 3.38477 22.7179 3.58231 23.0695 3.93394C23.4212 4.28557 23.6187 4.76248 23.6187 5.25977V9.24414H7.6062V5.25977C7.6062 4.76248 7.80375 4.28557 8.15538 3.93394C8.50701 3.58231 8.98392 3.38477 9.4812 3.38477Z" fill="#FF4A64"/>
<path d="M24.5562 10.1816H6.6687V5.25977C6.6687 4.51384 6.96502 3.79847 7.49246 3.27103C8.01991 2.74358 8.73528 2.44727 9.4812 2.44727H21.7437C22.4896 2.44727 23.205 2.74358 23.7324 3.27103C24.2599 3.79847 24.5562 4.51384 24.5562 5.25977V10.1816ZM8.5437 8.30664H22.6812V5.25977C22.6812 5.01113 22.5824 4.77267 22.4066 4.59685C22.2308 4.42104 21.9923 4.32227 21.7437 4.32227H9.4812C9.23256 4.32227 8.9941 4.42104 8.81829 4.59685C8.64247 4.77267 8.5437 5.01113 8.5437 5.25977V8.30664Z" fill="#17061C"/>
</svg>
